<svg width="13" height="11" viewBox="0 0 13 11" fill="none" xmlns="http://www.w3.org/2000/svg">
<path d="M4.89287 9.80913C4.83458 9.75158 4.58537 9.53429 4.38037 9.33187C3.09108 8.14517 0.980784 5.04943 0.336642 3.42913C0.233137 3.18306 0.0140686 2.56093 0 2.22854C0 1.91003 0.0723529 1.60641 0.219069 1.31668C0.424069 0.955512 0.746642 0.665783 1.1275 0.507027C1.39179 0.404828 2.18265 0.246072 2.19672 0.246072C3.06194 0.0873158 4.46779 0 6.02137 0C7.50159 0 8.85017 0.0873158 9.72846 0.217297C9.74252 0.232181 10.7253 0.390936 11.062 0.564576C11.677 0.88308 12.0588 1.5052 12.0588 2.17099V2.22854C12.0438 2.66214 11.6619 3.57399 11.6478 3.57399C11.0027 5.10698 8.99588 8.13128 7.66238 9.34676C7.66238 9.34676 7.31971 9.68907 7.10566 9.83791C6.79816 10.0701 6.4173 10.1852 6.03645 10.1852C5.61137 10.1852 5.21544 10.0552 4.89287 9.80913" fill="#D99C76"/>
</svg>
