<svg xmlns="http://www.w3.org/2000/svg" viewBox="0 0 62.09 76.26"><defs><style>.cls-1{fill:#333;}.cls-2{fill:#ffd7af;}.cls-3{fill:#f5cda5;}.cls-4{fill:#fed9ae;}.cls-5{fill:#ffe1b9;}.cls-6{fill:#db7b13;}.cls-7{fill:#cc5525;}</style></defs><g id="Layer_2" data-name="Layer 2"><g id="Layer_1-2" data-name="Layer 1"><path class="cls-1" d="M18.84,6.08C15.42-2.32,0-3.24,0,11.18,0,23,7.17,22.93,7.17,30c0,3.34-3.34,4.17-3.34,4.17s.6,3.72,5.59,3.72A6.34,6.34,0,0,0,15.17,35Z"/><path class="cls-1" d="M43.25,6.08c3.43-8.4,18.84-9.32,18.84,5.1C62.09,23,54.93,22.93,54.93,30a4.44,4.44,0,0,0,3.33,4.17s-.59,3.72-5.59,3.72A6.33,6.33,0,0,1,46.93,35Z"/><path class="cls-1" d="M31.07,3.82C28.36.55,8.85,4.31,11,29.59c.82,9.88,11.25,14.34,11.25,14.34h17.7s10.42-4.46,11.25-14.34C53.29,4.31,33.77.55,31.07,3.82Z"/><path class="cls-2" d="M31,61.64,39.46,55s-1.22-1.63-1.73-6.68H24.35c-.51,5-1.73,6.68-1.73,6.68L31,61.64Z"/><path class="cls-3" d="M37.73,48.28H24.35c-.05.52-.11,1-.18,1.45a10.82,10.82,0,0,0,13.74,0C37.84,49.28,37.78,48.8,37.73,48.28Z"/><path class="cls-4" d="M31,50.58C38.91,50.58,45,42.33,45,28.67c0-17-5-21-13.92-21s-13.92,4-13.92,21C17.12,42.33,23.16,50.58,31,50.58Z"/><path class="cls-5" d="M31.21,7.67v42.9C39,50.45,45,42.23,45,28.67,45,11.74,40,7.72,31.21,7.67Z"/><path class="cls-2" d="M18.2,37.42s-2.15,2.29-3.2-3.17c-1.11-5.83-1.07-9,.93-9.67a1.21,1.21,0,0,1,1.65.67Z"/><path class="cls-2" d="M44.08,37.42s2.15,2.29,3.2-3.17c1.11-5.83,1.07-9-.93-9.67a1.21,1.21,0,0,0-1.65.67Z"/><path class="cls-1" d="M44.5,26.08h1.38s2.06-8.94-1.63-15.88S31.44,4.08,31.13,4.08,22.31,4,19.06,10.58s-4.31,5.06-2.5,15.5h1.38s.69-6.76,2.81-7.88c-.87,2.19.08,7.88.08,7.88H28l1.5-4.4.83,4H39a38.48,38.48,0,0,0-.5-8.17s2.67,5.75,2.5,8Z"/><path class="cls-6" d="M59.42,76.26,55.71,65.51a5,5,0,0,0-2.3-2.74l-8.68-4.83-13.6-.09H31l-13.6.09L8.76,62.77a5,5,0,0,0-2.3,2.74L2.75,76.26H59.42Z"/><path class="cls-7" d="M22.62,52.19l-5.5,5.07s5.79,14.08,13.92.58Z"/><path class="cls-7" d="M39.54,52.19,45,57.26s-5.79,14.08-13.91.58Z"/></g></g></svg>