<svg width="28" height="28" viewBox="0 0 28 28" fill="none" xmlns="http://www.w3.org/2000/svg">
<path d="M26.1192 7.00024H0.580444C0.260049 7.00024 0 7.26039 0 7.5836C0 7.90674 0.260049 8.16695 0.580444 8.16695H26.1192C26.4396 8.16695 26.6996 7.9056 26.6996 7.5836C26.6996 7.2616 26.4396 7.00024 26.1192 7.00024Z" fill="#3B3F45"/>
<path d="M12.5104 0.098136C12.2422 -0.0803639 11.8823 -0.00801239 11.7059 0.260284L7.06249 7.26028C6.88488 7.52863 6.95687 7.89028 7.22383 8.06878C7.32249 8.13528 7.43393 8.16678 7.54537 8.16678C7.73228 8.16678 7.91686 8.07578 8.0283 7.90663L12.6717 0.906636C12.8493 0.638284 12.7774 0.276636 12.5104 0.098136Z" fill="#3B3F45"/>
<path d="M19.6356 7.26035L14.9922 0.260353C14.8146 -0.00914683 14.4547 -0.0802952 14.1877 0.0982047C13.9207 0.276705 13.8488 0.638353 14.0264 0.906704L18.6698 7.9067C18.7823 8.07585 18.9658 8.16685 19.1538 8.16685C19.2653 8.16685 19.3767 8.13535 19.4742 8.06885C19.7412 7.89035 19.8132 7.5287 19.6356 7.26035Z" fill="#3B3F45"/>
<path d="M25.0211 7.53151L25.0215 7.53207C25.0364 7.55165 25.0426 7.57986 25.0353 7.60655L25.0353 7.60658L23.3929 13.6586C23.3928 13.6586 23.3928 13.6587 23.3928 13.6587C23.3791 13.7085 23.334 13.7265 23.3025 13.7187L23.3025 13.7187L23.2969 13.7174C18.521 12.6031 14.1702 15.897 13.5224 20.4283C13.5156 20.4729 13.4794 20.5002 13.4426 20.5002H6.99642C5.91901 20.5002 4.96513 19.7699 4.68015 18.7192L4.68014 18.7191L1.66424 7.60544L1.66424 7.60544L1.66394 7.60432C1.65727 7.57999 1.66268 7.55209 1.67794 7.53207L1.67837 7.53151C1.69329 7.51189 1.71692 7.50024 1.74119 7.50024H24.9582C24.9825 7.50024 25.0061 7.51189 25.0211 7.53151Z" stroke="#3B3F45"/>
<path d="M15.5911 21.5835C15.5911 18.3188 18.2334 15.6669 21.4757 15.6669C24.7181 15.6669 27.3604 18.3188 27.3604 21.5835C27.3604 24.8482 24.7181 27.5002 21.4757 27.5002C18.2334 27.5002 15.5911 24.8482 15.5911 21.5835ZM22.5561 23.9169V22.6669H23.7974C24.3963 22.6669 24.8778 22.1793 24.8778 21.5835C24.8778 20.9877 24.3963 20.5002 23.7974 20.5002H22.5561V19.2502C22.5561 18.6544 22.0746 18.1668 21.4757 18.1668C20.8768 18.1668 20.3952 18.6544 20.3952 19.2502V20.5002H19.154C18.5551 20.5002 18.0735 20.9877 18.0735 21.5835C18.0735 22.1793 18.5551 22.6669 19.154 22.6669H20.3952V23.9169C20.3952 24.5145 20.8775 25.0002 21.4757 25.0002C22.0746 25.0002 22.5561 24.5126 22.5561 23.9169Z" stroke="#3B3F45"/>
</svg>
