<svg width="28" height="28" viewBox="0 0 28 28" fill="none" xmlns="http://www.w3.org/2000/svg">
<path d="M26.1192 7.00024H0.580444C0.260049 7.00024 0 7.26039 0 7.5836C0 7.90674 0.260049 8.16695 0.580444 8.16695H26.1192C26.4396 8.16695 26.6996 7.9056 26.6996 7.5836C26.6996 7.2616 26.4396 7.00024 26.1192 7.00024Z" fill="#3B3F45"/>
<path d="M12.5104 0.098136C12.2422 -0.0803639 11.8823 -0.00801239 11.7059 0.260284L7.06249 7.26028C6.88488 7.52863 6.95687 7.89028 7.22383 8.06878C7.32249 8.13528 7.43393 8.16678 7.54537 8.16678C7.73228 8.16678 7.91686 8.07578 8.0283 7.90663L12.6717 0.906636C12.8493 0.638284 12.7774 0.276636 12.5104 0.098136Z" fill="#3B3F45"/>
<path d="M19.6356 7.26035L14.9922 0.260353C14.8146 -0.00914683 14.4547 -0.0802952 14.1877 0.0982047C13.9207 0.276705 13.8488 0.638353 14.0264 0.906704L18.6698 7.9067C18.7823 8.07585 18.9658 8.16685 19.1538 8.16685C19.2653 8.16685 19.3767 8.13535 19.4742 8.06885C19.7412 7.89035 19.8132 7.5287 19.6356 7.26035Z" fill="#3B3F45"/>
<path d="M25.4191 7.22889C25.31 7.08539 25.1393 7.00024 24.9582 7.00024H1.74119C1.5601 7.00024 1.38945 7.08539 1.28035 7.22889C1.17005 7.37354 1.13408 7.56254 1.18169 7.73639L4.19759 18.85C4.54122 20.117 5.6916 21.0002 6.99642 21.0002H13.4426C13.7317 21.0002 13.9755 20.7867 14.0173 20.4997C14.6256 16.2425 18.7083 13.1602 23.1833 14.2043C23.4875 14.279 23.7928 14.0923 23.8752 13.7902L25.5178 7.73754C25.5654 7.56254 25.5294 7.37354 25.4191 7.22889Z" fill="#3B3F45"/>
<path d="M21.4757 15.1669C17.9549 15.1669 15.0911 18.045 15.0911 21.5835C15.0911 25.122 17.9549 28.0002 21.4757 28.0002C24.9966 28.0002 27.8604 25.122 27.8604 21.5835C27.8604 18.045 24.9966 15.1669 21.4757 15.1669ZM23.7974 22.1669H22.0561V23.9169C22.0561 24.2389 21.7961 24.5002 21.4757 24.5002C21.1553 24.5002 20.8952 24.2401 20.8952 23.9169V22.1669H19.154C18.8336 22.1669 18.5735 21.9055 18.5735 21.5835C18.5735 21.2615 18.8336 21.0002 19.154 21.0002H20.8952V19.2502C20.8952 18.9282 21.1553 18.6668 21.4757 18.6668C21.7961 18.6668 22.0561 18.9282 22.0561 19.2502V21.0002H23.7974C24.1178 21.0002 24.3778 21.2615 24.3778 21.5835C24.3778 21.9055 24.1178 22.1669 23.7974 22.1669Z" fill="#3B3F45"/>
</svg>
