<svg width="29" height="28" viewBox="0 0 29 28" fill="none" xmlns="http://www.w3.org/2000/svg">
<path fill-rule="evenodd" clip-rule="evenodd" d="M13.9457 24.3294C11.426 22.7709 9.08188 20.9366 6.9554 18.8594C5.4604 17.3634 4.32226 15.5397 3.62818 13.5279C2.37916 9.62535 3.8381 5.15763 7.92103 3.83544C10.0669 3.14117 12.4104 3.53798 14.2186 4.90172C16.0275 3.53964 18.3703 3.14297 20.5162 3.83544C24.5992 5.15763 26.0686 9.62535 24.8196 13.5279C24.1255 15.5397 22.9873 17.3634 21.4923 18.8594C19.3659 20.9366 17.0218 22.7709 14.502 24.3294L14.2291 24.5L13.9457 24.3294Z" stroke="#3B3F45" stroke-linecap="round" stroke-linejoin="round"/>
<path d="M18.564 8.22852C19.8006 8.62553 20.6793 9.74133 20.7891 11.0542" stroke="#3B3F45" stroke-linecap="round" stroke-linejoin="round"/>
</svg>
