<svg xmlns="http://www.w3.org/2000/svg" viewBox="0 0 20 20"><defs><style>.cls-1{fill:none;stroke:#3b3f45;stroke-linejoin:round;}.cls-2{fill:#3b3f45;}</style></defs><g id="Layer_2" data-name="Layer 2"><g id="Layer_1-2" data-name="Layer 1"><circle class="cls-1" cx="10" cy="10" r="3.78"/><path class="cls-2" d="M16,0H4A4,4,0,0,0,0,4V16a4,4,0,0,0,4,4H16a4,4,0,0,0,4-4V4A4,4,0,0,0,16,0Zm0,13a3,3,0,0,1-3,3H7a3,3,0,0,1-3-3V7A3,3,0,0,1,7,4h6a3,3,0,0,1,3,3Zm1.07-8.76a1.08,1.08,0,1,1,1.08-1.08A1.08,1.08,0,0,1,17.07,4.24Z"/></g></g></svg>