<svg width="22" height="21" viewBox="0 0 22 21" fill="none" xmlns="http://www.w3.org/2000/svg">
<path d="M19.5194 3.47814L18.8117 4.18472L18.8128 4.18584L19.5194 3.47814ZM17.6104 8.4541L18.3173 9.16142L18.3513 9.12743L18.3819 9.09032L17.6104 8.4541ZM17.5304 8.53405L18.155 9.31501L18.1981 9.28047L18.2373 9.24138L17.5304 8.53405ZM17.5994 7.45471L18.3566 6.80155L18.3438 6.78669L18.3304 6.77235L17.5994 7.45471ZM17.0704 7.19487L17.1703 6.19988L17.1465 6.19749L17.1226 6.19624L17.0704 7.19487ZM16.5094 7.39475L17.1331 8.17641L17.1619 8.15337L17.189 8.12827L16.5094 7.39475ZM12.0004 10.9926L11.3767 10.2109L11.3694 10.2167L11.3622 10.2226L12.0004 10.9926ZM10.0004 10.9926L10.6327 10.2178L10.6248 10.2115L10.0004 10.9926ZM5.50037 7.39475L6.12483 6.61369L6.11 6.60184L6.09474 6.59056L5.50037 7.39475ZM4.50037 7.46471L5.20726 8.17203L5.21461 8.16468L5.22181 8.15718L4.50037 7.46471ZM4.42937 8.4641L3.63466 9.07109L3.67638 9.12572L3.72519 9.17412L4.42937 8.4641ZM4.56037 8.59402L3.85619 9.30404L3.89848 9.34599L3.94546 9.38262L4.56037 8.59402ZM9.11037 12.1419L9.72796 11.3553L9.72527 11.3533L9.11037 12.1419ZM13.0194 12.1419L13.6377 12.9278L13.644 12.9228L13.0194 12.1419ZM20.227 2.77156C19.0887 1.63157 17.5434 0.998047 15.9394 0.998047V2.99805C17.0173 2.99805 18.052 3.42387 18.8117 4.18472L20.227 2.77156ZM22.0004 7.04496C22.0004 5.43968 21.3634 3.90603 20.2259 2.77045L18.8128 4.18584C19.5754 4.9471 20.0004 5.97188 20.0004 7.04496H22.0004ZM22.0004 14.9401V7.04496H20.0004V14.9401H22.0004ZM15.9394 20.9871C19.2794 20.9871 22.0004 18.284 22.0004 14.9401H20.0004C20.0004 17.1729 18.1814 18.9871 15.9394 18.9871V20.9871ZM6.06037 20.9871H15.9394V18.9871H6.06037V20.9871ZM0.000366211 14.9401C0.000366211 18.2837 2.72011 20.9871 6.06037 20.9871V18.9871C3.81863 18.9871 2.00037 17.1731 2.00037 14.9401H0.000366211ZM0.000366211 7.04496V14.9401H2.00037V7.04496H0.000366211ZM6.06037 0.998047C2.70882 0.998047 0.000366211 3.70265 0.000366211 7.04496H2.00037C2.00037 4.81069 3.80991 2.99805 6.06037 2.99805V0.998047ZM15.9394 0.998047H6.06037V2.99805H15.9394V0.998047ZM16.9035 7.74678L16.8235 7.82673L18.2373 9.24138L18.3173 9.16142L16.9035 7.74678ZM16.8422 8.10788C16.7701 8.02439 16.7716 7.89946 16.8389 7.81788L18.3819 9.09032C18.9271 8.4291 18.9286 7.46469 18.3566 6.80155L16.8422 8.10788ZM16.9704 8.18987C16.9376 8.18656 16.9012 8.17226 16.8684 8.13708L18.3304 6.77235C18.0195 6.43935 17.6012 6.24316 17.1703 6.19988L16.9704 8.18987ZM17.189 8.12827C17.136 8.17743 17.0697 8.19621 17.0181 8.1935L17.1226 6.19624C16.651 6.17155 16.1847 6.33224 15.8297 6.66123L17.189 8.12827ZM12.6241 11.7742L17.1331 8.17641L15.8857 6.61309L11.3767 10.2109L12.6241 11.7742ZM9.36808 11.7673C10.3222 12.546 11.6856 12.5523 12.6385 11.7625L11.3622 10.2226C11.1552 10.3942 10.8565 10.4005 10.6327 10.2178L9.36808 11.7673ZM4.8759 8.1758L9.3759 11.7736L10.6248 10.2115L6.12483 6.61369L4.8759 8.1758ZM5.22181 8.15718C5.11446 8.26902 4.97783 8.25203 4.90599 8.19894L6.09474 6.59056C5.4009 6.07775 4.40427 6.12072 3.77892 6.77223L5.22181 8.15718ZM5.22407 7.8571C5.30336 7.96091 5.28687 8.09246 5.20726 8.17203L3.79347 6.75738C3.17386 7.37662 3.09737 8.36765 3.63466 9.07109L5.22407 7.8571ZM5.26454 7.88399L5.13354 7.75407L3.72519 9.17412L3.85619 9.30404L5.26454 7.88399ZM9.72527 11.3533L5.17527 7.80542L3.94546 9.38262L8.49546 12.9305L9.72527 11.3533ZM11.0604 11.8214C10.5784 11.8214 10.1158 11.6599 9.72795 11.3554L8.49278 12.9284C9.22491 13.5033 10.1204 13.8214 11.0604 13.8214V11.8214ZM12.4011 11.3559C12.0176 11.6576 11.5441 11.8214 11.0604 11.8214V13.8214C11.9946 13.8214 12.9031 13.5056 13.6376 12.9278L12.4011 11.3559ZM16.9058 7.7531L12.3948 11.3609L13.644 12.9228L18.155 9.31501L16.9058 7.7531Z" fill="#3B3F45"/>
</svg>
