<svg width="1064" height="717" viewBox="0 0 1064 717" fill="none" xmlns="http://www.w3.org/2000/svg">
<g filter="url(#filter0_d)">
<path fill-rule="evenodd" clip-rule="evenodd" d="M210.315 312.503L311.744 253.943L421.801 444.568L320.422 503.099C320.406 503.108 320.389 503.118 320.373 503.128C320.356 503.137 320.339 503.147 320.323 503.156L319.863 503.422L319.862 503.421C267.299 533.402 200.325 515.313 170.032 462.844C139.738 410.374 157.56 343.329 209.806 312.798L209.806 312.797L210.315 312.503Z" fill="#BA947E"/>
</g>
<g filter="url(#filter1_d)">
<path fill-rule="evenodd" clip-rule="evenodd" d="M251.963 796.232C253.172 795.592 254.374 794.927 255.569 794.238C308.208 763.846 326.244 696.536 295.853 643.897C265.461 591.257 198.151 573.221 145.511 603.613C144.317 604.303 143.14 605.011 141.981 605.738L141.944 605.673L40.0051 664.527L150.062 855.152L252.001 796.298L251.963 796.232Z" fill="#AA8067"/>
</g>
<g filter="url(#filter2_d)">
<path fill-rule="evenodd" clip-rule="evenodd" d="M581.861 722.742C581.221 721.533 580.557 720.331 579.867 719.136C549.475 666.497 482.165 648.461 429.526 678.852C376.886 709.244 358.851 776.554 389.242 829.194C389.932 830.388 390.64 831.565 391.368 832.724L391.302 832.761L450.156 934.7L640.781 824.642L581.927 722.704L581.861 722.742Z" fill="#AA8067"/>
</g>
<g filter="url(#filter3_d)">
<path fill-rule="evenodd" clip-rule="evenodd" d="M442.588 686.175C443.797 685.535 444.999 684.87 446.194 684.18C498.833 653.789 516.869 586.479 486.478 533.839C456.086 481.2 388.776 463.164 336.136 493.556C334.942 494.245 333.765 494.954 332.606 495.681L332.569 495.615L230.63 554.47L340.687 745.094L442.626 686.24L442.588 686.175Z" fill="#AA8067"/>
</g>
<g filter="url(#filter4_d)">
<path fill-rule="evenodd" clip-rule="evenodd" d="M141.403 606.115L40.062 664.624L-69.9953 473.999L31.9431 415.145L31.9439 415.147C84.5074 385.165 151.481 403.254 181.774 455.723C212.068 508.193 194.246 575.238 142 605.769L142 605.77L141.578 606.014C141.549 606.031 141.52 606.047 141.491 606.064C141.461 606.081 141.432 606.098 141.403 606.115Z" fill="#BA947E"/>
</g>
<g opacity="0.55" filter="url(#filter5_d)">
<path fill-rule="evenodd" clip-rule="evenodd" d="M597.312 78.5597L698.74 19.9998L808.797 210.625L707.418 269.156C707.402 269.165 707.385 269.175 707.369 269.184C707.352 269.194 707.336 269.204 707.319 269.213L706.859 269.479L706.858 269.477C654.295 299.459 587.321 281.37 557.028 228.901C526.734 176.431 544.556 109.386 596.803 78.8553L596.802 78.854L597.312 78.5597Z" fill="#BA947E"/>
</g>
<g opacity="0.55" filter="url(#filter6_d)">
<path fill-rule="evenodd" clip-rule="evenodd" d="M638.959 562.289C640.168 561.649 641.37 560.984 642.565 560.294C695.205 529.903 713.24 462.593 682.849 409.953C652.457 357.314 585.147 339.278 532.508 369.67C531.313 370.359 530.136 371.068 528.978 371.795L528.94 371.729L427.001 430.584L537.059 621.208L638.997 562.354L638.959 562.289Z" fill="#AA8067"/>
</g>
<g opacity="0.55" filter="url(#filter7_d)">
<path fill-rule="evenodd" clip-rule="evenodd" d="M748.428 751.894C749.637 751.254 750.839 750.589 752.034 749.9C804.673 719.508 822.709 652.198 792.317 599.559C761.926 546.919 694.616 528.884 641.976 559.275C640.782 559.965 639.605 560.673 638.446 561.4L638.408 561.335L536.47 620.189L646.527 810.814L748.466 751.96L748.428 751.894Z" fill="#BA947E"/>
</g>
<g opacity="0.55" filter="url(#filter8_d)">
<path fill-rule="evenodd" clip-rule="evenodd" d="M984.857 493.799C984.217 492.59 983.552 491.388 982.862 490.193C952.471 437.554 885.161 419.518 832.521 449.909C779.882 480.301 761.846 547.611 792.237 600.25C792.927 601.445 793.636 602.622 794.363 603.78L794.297 603.818L853.152 705.757L1043.78 595.699L984.922 493.761L984.857 493.799Z" fill="#AA8067"/>
</g>
<g opacity="0.55" filter="url(#filter9_d)">
<path fill-rule="evenodd" clip-rule="evenodd" d="M840.584 447.232C841.793 446.592 842.995 445.927 844.19 445.238C896.83 414.846 914.865 347.536 884.474 294.897C854.082 242.257 786.772 224.221 734.133 254.613C732.938 255.303 731.761 256.011 730.603 256.738L730.565 256.673L628.626 315.527L738.684 506.152L840.622 447.298L840.584 447.232Z" fill="#AA8067"/>
</g>
<g opacity="0.55" filter="url(#filter10_d)">
<path fill-rule="evenodd" clip-rule="evenodd" d="M528.399 372.172L427.058 430.681L317.001 240.057L418.939 181.202L418.94 181.204C471.504 151.222 538.477 169.311 568.771 221.781C599.064 274.25 581.242 341.295 528.996 371.826L528.997 371.827L528.575 372.071C528.545 372.088 528.516 372.105 528.487 372.122C528.458 372.139 528.428 372.155 528.399 372.172Z" fill="#AA8067"/>
</g>
<defs>
<filter id="filter0_d" x="95.0029" y="233.943" width="346.798" height="344.213" filterUnits="userSpaceOnUse" color-interpolation-filters="sRGB">
<feFlood flood-opacity="0" result="BackgroundImageFix"/>
<feColorMatrix in="SourceAlpha" type="matrix" values="0 0 0 0 0 0 0 0 0 0 0 0 0 0 0 0 0 0 127 0"/>
<feOffset/>
<feGaussianBlur stdDeviation="10"/>
<feColorMatrix type="matrix" values="0 0 0 0 0 0 0 0 0 0 0 0 0 0 0 0 0 0 0.1 0"/>
<feBlend mode="normal" in2="BackgroundImageFix" result="effect1_dropShadow"/>
<feBlend mode="normal" in="SourceGraphic" in2="effect1_dropShadow" result="shape"/>
</filter>
<filter id="filter1_d" x="20.0051" y="528.584" width="350.876" height="346.568" filterUnits="userSpaceOnUse" color-interpolation-filters="sRGB">
<feFlood flood-opacity="0" result="BackgroundImageFix"/>
<feColorMatrix in="SourceAlpha" type="matrix" values="0 0 0 0 0 0 0 0 0 0 0 0 0 0 0 0 0 0 127 0"/>
<feOffset/>
<feGaussianBlur stdDeviation="10"/>
<feColorMatrix type="matrix" values="0 0 0 0 0 0 0 0 0 0 0 0 0 0 0 0 0 0 0.1 0"/>
<feBlend mode="normal" in2="BackgroundImageFix" result="effect1_dropShadow"/>
<feBlend mode="normal" in="SourceGraphic" in2="effect1_dropShadow" result="shape"/>
</filter>
<filter id="filter2_d" x="314.214" y="603.824" width="346.568" height="350.876" filterUnits="userSpaceOnUse" color-interpolation-filters="sRGB">
<feFlood flood-opacity="0" result="BackgroundImageFix"/>
<feColorMatrix in="SourceAlpha" type="matrix" values="0 0 0 0 0 0 0 0 0 0 0 0 0 0 0 0 0 0 127 0"/>
<feOffset/>
<feGaussianBlur stdDeviation="10"/>
<feColorMatrix type="matrix" values="0 0 0 0 0 0 0 0 0 0 0 0 0 0 0 0 0 0 0.1 0"/>
<feBlend mode="normal" in2="BackgroundImageFix" result="effect1_dropShadow"/>
<feBlend mode="normal" in="SourceGraphic" in2="effect1_dropShadow" result="shape"/>
</filter>
<filter id="filter3_d" x="210.63" y="418.527" width="350.876" height="346.568" filterUnits="userSpaceOnUse" color-interpolation-filters="sRGB">
<feFlood flood-opacity="0" result="BackgroundImageFix"/>
<feColorMatrix in="SourceAlpha" type="matrix" values="0 0 0 0 0 0 0 0 0 0 0 0 0 0 0 0 0 0 127 0"/>
<feOffset/>
<feGaussianBlur stdDeviation="10"/>
<feColorMatrix type="matrix" values="0 0 0 0 0 0 0 0 0 0 0 0 0 0 0 0 0 0 0.1 0"/>
<feBlend mode="normal" in2="BackgroundImageFix" result="effect1_dropShadow"/>
<feBlend mode="normal" in="SourceGraphic" in2="effect1_dropShadow" result="shape"/>
</filter>
<filter id="filter4_d" x="-89.9953" y="340.411" width="346.798" height="344.213" filterUnits="userSpaceOnUse" color-interpolation-filters="sRGB">
<feFlood flood-opacity="0" result="BackgroundImageFix"/>
<feColorMatrix in="SourceAlpha" type="matrix" values="0 0 0 0 0 0 0 0 0 0 0 0 0 0 0 0 0 0 127 0"/>
<feOffset/>
<feGaussianBlur stdDeviation="10"/>
<feColorMatrix type="matrix" values="0 0 0 0 0 0 0 0 0 0 0 0 0 0 0 0 0 0 0.1 0"/>
<feBlend mode="normal" in2="BackgroundImageFix" result="effect1_dropShadow"/>
<feBlend mode="normal" in="SourceGraphic" in2="effect1_dropShadow" result="shape"/>
</filter>
<filter id="filter5_d" x="481.999" y="-0.000244141" width="346.798" height="344.213" filterUnits="userSpaceOnUse" color-interpolation-filters="sRGB">
<feFlood flood-opacity="0" result="BackgroundImageFix"/>
<feColorMatrix in="SourceAlpha" type="matrix" values="0 0 0 0 0 0 0 0 0 0 0 0 0 0 0 0 0 0 127 0"/>
<feOffset/>
<feGaussianBlur stdDeviation="10"/>
<feColorMatrix type="matrix" values="0 0 0 0 0 0 0 0 0 0 0 0 0 0 0 0 0 0 0.1 0"/>
<feBlend mode="normal" in2="BackgroundImageFix" result="effect1_dropShadow"/>
<feBlend mode="normal" in="SourceGraphic" in2="effect1_dropShadow" result="shape"/>
</filter>
<filter id="filter6_d" x="407.001" y="294.641" width="350.876" height="346.568" filterUnits="userSpaceOnUse" color-interpolation-filters="sRGB">
<feFlood flood-opacity="0" result="BackgroundImageFix"/>
<feColorMatrix in="SourceAlpha" type="matrix" values="0 0 0 0 0 0 0 0 0 0 0 0 0 0 0 0 0 0 127 0"/>
<feOffset/>
<feGaussianBlur stdDeviation="10"/>
<feColorMatrix type="matrix" values="0 0 0 0 0 0 0 0 0 0 0 0 0 0 0 0 0 0 0.1 0"/>
<feBlend mode="normal" in2="BackgroundImageFix" result="effect1_dropShadow"/>
<feBlend mode="normal" in="SourceGraphic" in2="effect1_dropShadow" result="shape"/>
</filter>
<filter id="filter7_d" x="516.47" y="484.246" width="350.876" height="346.568" filterUnits="userSpaceOnUse" color-interpolation-filters="sRGB">
<feFlood flood-opacity="0" result="BackgroundImageFix"/>
<feColorMatrix in="SourceAlpha" type="matrix" values="0 0 0 0 0 0 0 0 0 0 0 0 0 0 0 0 0 0 127 0"/>
<feOffset/>
<feGaussianBlur stdDeviation="10"/>
<feColorMatrix type="matrix" values="0 0 0 0 0 0 0 0 0 0 0 0 0 0 0 0 0 0 0.1 0"/>
<feBlend mode="normal" in2="BackgroundImageFix" result="effect1_dropShadow"/>
<feBlend mode="normal" in="SourceGraphic" in2="effect1_dropShadow" result="shape"/>
</filter>
<filter id="filter8_d" x="717.209" y="374.881" width="346.568" height="350.876" filterUnits="userSpaceOnUse" color-interpolation-filters="sRGB">
<feFlood flood-opacity="0" result="BackgroundImageFix"/>
<feColorMatrix in="SourceAlpha" type="matrix" values="0 0 0 0 0 0 0 0 0 0 0 0 0 0 0 0 0 0 127 0"/>
<feOffset/>
<feGaussianBlur stdDeviation="10"/>
<feColorMatrix type="matrix" values="0 0 0 0 0 0 0 0 0 0 0 0 0 0 0 0 0 0 0.1 0"/>
<feBlend mode="normal" in2="BackgroundImageFix" result="effect1_dropShadow"/>
<feBlend mode="normal" in="SourceGraphic" in2="effect1_dropShadow" result="shape"/>
</filter>
<filter id="filter9_d" x="608.626" y="179.584" width="350.876" height="346.568" filterUnits="userSpaceOnUse" color-interpolation-filters="sRGB">
<feFlood flood-opacity="0" result="BackgroundImageFix"/>
<feColorMatrix in="SourceAlpha" type="matrix" values="0 0 0 0 0 0 0 0 0 0 0 0 0 0 0 0 0 0 127 0"/>
<feOffset/>
<feGaussianBlur stdDeviation="10"/>
<feColorMatrix type="matrix" values="0 0 0 0 0 0 0 0 0 0 0 0 0 0 0 0 0 0 0.1 0"/>
<feBlend mode="normal" in2="BackgroundImageFix" result="effect1_dropShadow"/>
<feBlend mode="normal" in="SourceGraphic" in2="effect1_dropShadow" result="shape"/>
</filter>
<filter id="filter10_d" x="297.001" y="106.468" width="346.798" height="344.213" filterUnits="userSpaceOnUse" color-interpolation-filters="sRGB">
<feFlood flood-opacity="0" result="BackgroundImageFix"/>
<feColorMatrix in="SourceAlpha" type="matrix" values="0 0 0 0 0 0 0 0 0 0 0 0 0 0 0 0 0 0 127 0"/>
<feOffset/>
<feGaussianBlur stdDeviation="10"/>
<feColorMatrix type="matrix" values="0 0 0 0 0 0 0 0 0 0 0 0 0 0 0 0 0 0 0.1 0"/>
<feBlend mode="normal" in2="BackgroundImageFix" result="effect1_dropShadow"/>
<feBlend mode="normal" in="SourceGraphic" in2="effect1_dropShadow" result="shape"/>
</filter>
</defs>
</svg>
