<?xml version="1.0" encoding="iso-8859-1"?>
<!-- Generator: Adobe Illustrator 19.0.0, SVG Export Plug-In . SVG Version: 6.00 Build 0)  -->
<svg version="1.1" id="Layer_1" xmlns="http://www.w3.org/2000/svg" xmlns:xlink="http://www.w3.org/1999/xlink" x="0px" y="0px"
	 viewBox="0 0 512 512" style="enable-background:new 0 0 512 512;" xml:space="preserve">
<rect x="316.397" y="193.612" style="fill:#FF738E;" width="59.259" height="100.741"/>
<path style="fill:#0E4675;" d="M147.848,12.322c-6.286-1.829-12.862,1.79-14.688,8.075l-0.471,1.62V11.852
	C132.69,5.307,127.384,0,120.838,0s-11.852,5.307-11.852,11.852v10.165l-0.471-1.62c-1.826-6.286-8.402-9.901-14.688-8.075
	c-6.286,1.825-9.901,8.402-8.075,14.688l23.233,79.975v187.367h23.704V106.985l23.233-79.975
	C157.749,20.724,154.133,14.149,147.848,12.322z"/>
<path style="fill:#6BADB4;" d="M67.504,270.649v219.259c0,29.455,106.667,29.455,106.667,0V270.649L67.504,270.649L67.504,270.649z"
	/>
<path style="fill:#FD3B6D;" d="M375.653,243.982h-59.259c-6.545,0-11.852-5.307-11.852-11.852s5.307-11.852,11.852-11.852h59.259
	c6.545,0,11.852,5.307,11.852,11.852S382.197,243.982,375.653,243.982z"/>
<path style="fill:#FF738E;" d="M437.237,464.649C435.958,490.693,413.578,512,387.504,512h-82.963
	c-26.074,0-48.454-21.307-49.733-47.351l-7.201-146.65c-1.279-26.043,19.008-47.351,45.082-47.351l53.333,23.704l53.333-23.704
	c26.074,0,46.361,21.307,45.082,47.351L437.237,464.649z"/>
<path style="fill:#FD3B6D;" d="M292.748,270.649l6.035,122.889c1.279,26.043,22.537,47.35,47.242,47.35
	c24.704,0,45.963-21.308,47.241-47.35l6.035-122.889H292.748z"/>
<g>
</g>
<g>
</g>
<g>
</g>
<g>
</g>
<g>
</g>
<g>
</g>
<g>
</g>
<g>
</g>
<g>
</g>
<g>
</g>
<g>
</g>
<g>
</g>
<g>
</g>
<g>
</g>
<g>
</g>
</svg>
