<svg xmlns="http://www.w3.org/2000/svg" viewBox="0 0 24 24"><defs><style>.cls-1{fill:#aa8067;}</style></defs><g id="Layer_2" data-name="Layer 2"><g id="Capa_1" data-name="Capa 1"><path class="cls-1" d="M22.8,1.2A4.13,4.13,0,0,0,17,1.2l-15,15a.76.76,0,0,0-.18.33L0,23.08a.77.77,0,0,0,.19.71A.78.78,0,0,0,.73,24l.19,0,6.53-1.76A.76.76,0,0,0,7.78,22l15-15a4.13,4.13,0,0,0,0-5.82ZM16.5,3.75l1.36,1.36-13,13L3.51,16.74ZM1.76,22.24l1.1-4.09,3,3Zm5.5-1.75L5.9,19.13l13-13L20.25,7.5ZM21.76,6l-.48.48L17.53,2.72,18,2.24A2.65,2.65,0,0,1,21.76,6Z"/></g></g></svg>