<svg width="24" height="24" viewBox="0 0 24 24" fill="none" xmlns="http://www.w3.org/2000/svg">
<path d="M18.1668 14.3712C17.4951 14.2268 16.9637 14.5384 16.4932 14.8106C16.0114 15.0911 15.0951 15.834 14.57 15.6438C11.8811 14.5374 9.35213 12.1853 8.25739 9.48722C8.06444 8.95114 8.80424 8.02962 9.08283 7.54237C9.35316 7.0707 9.65858 6.53462 9.51928 5.85829C9.3934 5.25052 7.76522 3.17996 7.18947 2.61375C6.80977 2.23974 6.42078 2.03403 6.02147 2.00079C4.5202 1.93637 2.84352 3.93837 2.54945 4.41731C1.81274 5.43856 1.81687 6.79747 2.56183 8.44519C4.35717 12.871 11.1475 19.5502 15.5925 21.4119C16.4128 21.7953 17.1629 21.9875 17.8366 21.9875C18.496 21.9875 19.0831 21.8036 19.5876 21.4389C19.9684 21.2197 22.0536 19.4608 21.9989 17.9201C21.9659 17.5274 21.7606 17.1347 21.3912 16.7544C20.8289 16.1737 18.7704 14.4979 18.1668 14.3712" fill="#3B3F45"/>
</svg>
