<svg width="29" height="29" viewBox="0 0 29 29" fill="none" xmlns="http://www.w3.org/2000/svg">
<path d="M8.57145 19.6186C9.94635 18.5712 11.5901 18.0175 13.3251 18.0175H16.089C17.8239 18.0175 19.4677 18.5712 20.8426 19.6186C21.911 20.4326 22.7597 21.5228 23.2959 22.7514C25.2299 20.6521 26.414 17.8454 26.414 14.7656C26.414 8.27803 21.1623 3 14.707 3C8.25172 3 3 8.27803 3 14.7656C3 17.8454 4.18413 20.6521 6.11809 22.7514C6.65438 21.5228 7.50313 20.4325 8.57145 19.6186ZM14.707 7.93584C17.4726 7.93584 19.7227 10.1971 19.7227 12.9765C19.7227 15.756 17.4726 18.0173 14.707 18.0173C11.9414 18.0173 9.69136 15.756 9.69136 12.9765C9.69136 10.1971 11.9414 7.93584 14.707 7.93584Z" fill="#3B3F45"/>
<path d="M14.7071 17.1188C16.9664 17.1188 18.8045 15.2715 18.8045 13.0008C18.8045 10.7302 16.9664 8.88293 14.7071 8.88293C12.4477 8.88293 10.6096 10.7302 10.6096 13.0008C10.6096 15.2715 12.4477 17.1188 14.7071 17.1188Z" fill="#3B3F45"/>
<path d="M16.0891 19.2367H13.3246C10.7436 19.2367 8.43398 21.0895 7.68262 23.7508C9.64075 25.3482 12.0735 26.2961 14.7068 26.2961C17.34 26.2961 19.7729 25.3482 21.731 23.7508C20.9797 21.0895 18.67 19.2367 16.0891 19.2367Z" fill="#3B3F45"/>
</svg>
