<svg width="29" height="29" viewBox="0 0 29 29" fill="none" xmlns="http://www.w3.org/2000/svg">
<path d="M8.26845 19.2209L8.26844 19.2209C7.33835 19.9295 6.56583 20.8337 6.00356 21.8537C4.43864 19.9162 3.5 17.4495 3.5 14.7656C3.5 8.55181 8.53022 3.5 14.707 3.5C20.8838 3.5 25.914 8.55181 25.914 14.7656C25.914 17.4495 24.9754 19.9161 23.4105 21.8537C22.8482 20.8337 22.0757 19.9295 21.1456 19.2209L21.1456 19.2209C20.1031 18.4266 18.9142 17.8991 17.6494 17.6617C19.1952 16.6786 20.2227 14.9451 20.2227 12.9765C20.2227 9.92327 17.7511 7.43584 14.707 7.43584C11.6629 7.43584 9.19136 9.92327 9.19136 12.9765C9.19136 14.9451 10.2188 16.6786 11.7647 17.6617C10.4998 17.8991 9.31097 18.4266 8.26845 19.2209Z" stroke="#3B3F45"/>
<path d="M18.3045 13.0008C18.3045 14.9977 16.6879 16.6188 14.7071 16.6188C12.7262 16.6188 11.1096 14.9977 11.1096 13.0008C11.1096 11.004 12.7262 9.38293 14.7071 9.38293C16.6879 9.38293 18.3045 11.004 18.3045 13.0008Z" stroke="#3B3F45"/>
<path d="M13.3246 19.7367H16.0891C18.323 19.7367 20.3689 21.2764 21.1518 23.5717C19.3242 24.9749 17.1006 25.7961 14.7068 25.7961C12.313 25.7961 10.0895 24.9749 8.26188 23.5717C9.04476 21.2764 11.0906 19.7367 13.3246 19.7367Z" stroke="#3B3F45"/>
</svg>
