<svg width="21" height="21" viewBox="0 0 21 21" fill="none" xmlns="http://www.w3.org/2000/svg">
<path fill-rule="evenodd" clip-rule="evenodd" d="M17.7079 3.46021C15.8278 1.58691 13.3274 0.55481 10.6637 0.553711C5.17474 0.553711 0.707564 4.99939 0.705356 10.4635C0.70462 12.2102 1.16311 13.9153 2.03459 15.4182L0.621826 20.5537L5.90087 19.1755C7.35546 19.9652 8.99306 20.3813 10.6596 20.3818H10.6638C16.1521 20.3818 20.6197 15.9358 20.6218 10.4714C20.6229 7.82324 19.5881 5.33337 17.7079 3.46021ZM10.6637 18.7081H10.6602C9.17508 18.7075 7.71853 18.3103 6.44755 17.5599L6.14545 17.3813L3.01278 18.1992L3.84894 15.1595L3.65207 14.8479C2.82352 13.5364 2.38601 12.0205 2.38674 10.4641C2.38846 5.92249 6.10154 2.22754 10.667 2.22754C12.8777 2.22827 14.9559 3.08618 16.5186 4.64319C18.0812 6.2002 18.9413 8.26978 18.9406 10.4708C18.9386 15.0128 15.2258 18.7081 10.6637 18.7081V18.7081ZM15.2037 12.5388C14.9549 12.4148 13.7316 11.8159 13.5034 11.7332C13.2755 11.6505 13.1094 11.6094 12.9437 11.8572C12.7778 12.105 12.301 12.6628 12.1558 12.828C12.0106 12.9933 11.8656 13.014 11.6167 12.89C11.3678 12.7661 10.5661 12.5045 9.61567 11.6609C8.87605 11.0043 8.37671 10.1934 8.23148 9.94556C8.0865 9.69751 8.23026 9.57642 8.34065 9.44019C8.61 9.1073 8.87973 8.7583 8.96264 8.59314C9.04568 8.42786 9.0041 8.2832 8.94179 8.1593C8.87973 8.0354 8.38211 6.81653 8.17481 6.32056C7.97268 5.83789 7.76771 5.90308 7.61488 5.89551C7.4699 5.88831 7.30395 5.88684 7.13799 5.88684C6.97216 5.88684 6.70256 5.94873 6.47442 6.19678C6.2464 6.4447 5.60367 7.0437 5.60367 8.26257C5.60367 9.48145 6.49527 10.6589 6.61964 10.8242C6.74402 10.9895 8.37425 13.4907 10.8702 14.5632C11.4639 14.8186 11.9273 14.9708 12.2887 15.085C12.8849 15.2734 13.4271 15.2468 13.8559 15.1831C14.334 15.1119 15.3279 14.584 15.5355 14.0056C15.7428 13.4271 15.7428 12.9314 15.6805 12.828C15.6184 12.7247 15.4524 12.6628 15.2037 12.5388V12.5388Z" fill="#3B3F45"/>
</svg>
