<svg xmlns="http://www.w3.org/2000/svg" viewBox="0 0 21 21"><defs><style>.cls-1{fill:#3b3f45;}.cls-1,.cls-2{fill-rule:evenodd;}.cls-2{fill:none;stroke:#3b3f45;stroke-miterlimit:10;}</style></defs><g id="Layer_2" data-name="Layer 2"><g id="Layer_1-2" data-name="Layer 1"><path class="cls-1" d="M14.86,12.53c-.25-.12-1.48-.72-1.7-.81s-.4-.12-.56.13-.65.8-.79,1-.29.19-.54.06a6.56,6.56,0,0,1-2-1.23A7.72,7.72,0,0,1,7.88,9.94c-.14-.25,0-.37.11-.51a7.36,7.36,0,0,0,.63-.85.43.43,0,0,0,0-.43C8.53,8,8,6.81,7.83,6.31s-.41-.42-.56-.42H6.79a.9.9,0,0,0-.66.31,2.75,2.75,0,0,0-.87,2.06,4.9,4.9,0,0,0,1,2.57,11.2,11.2,0,0,0,4.25,3.73c.6.26,1.06.41,1.42.53a3.46,3.46,0,0,0,1.57.09A2.54,2.54,0,0,0,15.19,14a2,2,0,0,0,.14-1.18c-.06-.1-.22-.17-.47-.29Z"/><path class="cls-2" d="M20.5,10.5a10,10,0,0,1-14.33,9c-.69-.33-3.34,1.26-3.93.78s1-2.9.56-3.42A10,10,0,1,1,20.5,10.5Z"/></g></g></svg>